<svg width="25" height="24" viewBox="0 0 25 24" fill="none" xmlns="http://www.w3.org/2000/svg">
<path fill-rule="evenodd" clip-rule="evenodd" d="M15.3899 0.057312C14.5749 0.0430298 13.7597 0.0287476 12.9591 0C12.2099 0.0377197 11.4853 0.0255127 10.7363 0.0129395C10.3525 0.00653076 9.96225 0 9.55908 0C8.45744 0.00976562 7.35819 0.10437 6.27108 0.28302C3.99227 0.639038 2.11929 2.26984 1.45308 4.47803C1.10424 5.67352 0.951257 6.9176 1.00008 8.16199V15.3C0.996062 16.4282 1.1304 17.5526 1.40008 18.648C1.75635 20.9253 3.38568 22.7971 5.59208 23.464C6.78758 23.8129 8.03168 23.9658 9.27608 23.917C10.0737 23.917 10.8639 23.9233 11.6516 23.9297C13.2191 23.9424 14.7764 23.955 16.3611 23.917C17.4624 23.9072 18.5613 23.8126 19.6481 23.634C21.9266 23.2781 23.7995 21.6478 24.4661 19.44C24.8149 18.2445 24.9679 17.0004 24.9191 15.756C24.9191 14.9623 24.9254 14.1687 24.9317 13.3751C24.9444 11.7881 24.9571 10.2013 24.9191 8.61401C24.8811 7.51422 24.7866 6.41711 24.6361 5.32703C24.3413 3.56976 23.2825 2.03369 21.7451 1.133C20.5315 0.459045 19.1652 0.107849 17.7771 0.112976C16.9907 0.0852661 16.1904 0.0712891 15.3899 0.057312ZM22.7081 8.95483C22.7081 9.91882 22.7081 10.8248 22.7651 11.7888C22.7455 12.4106 22.7327 13.0332 22.7199 13.6537C22.6954 14.8405 22.671 16.0201 22.6001 17.1738C22.6297 18.5086 22.0446 19.7831 21.0131 20.6308C20.3563 21.1755 19.5412 21.4935 18.6891 21.5378C17.7865 21.6509 16.8777 21.7077 15.9681 21.7078C15.2839 21.7078 14.606 21.7142 13.9323 21.7206C12.5973 21.7332 11.2787 21.7457 9.96009 21.7078C8.89767 21.7189 7.83612 21.6429 6.78609 21.4808C4.85536 21.238 3.38872 19.6259 3.32909 17.6808C3.21609 16.3198 3.15909 14.9028 3.15909 13.5428C3.15909 11.3888 3.15909 9.2348 3.21609 7.08081C3.25507 6.50629 3.34985 5.93695 3.49909 5.3808C3.92014 3.79376 5.26832 2.62518 6.89909 2.43384C7.89068 2.27185 8.89442 2.19592 9.89909 2.20679C11.9401 2.14984 13.9241 2.14984 15.9641 2.20679C17.0271 2.16949 18.0912 2.24561 19.1381 2.43384C21.0262 2.73926 22.4437 4.32343 22.5381 6.23383C22.6512 7.13641 22.708 8.04517 22.7081 8.95483Z" fill="white"/>
<path fill-rule="evenodd" clip-rule="evenodd" d="M15.2892 17.6211C17.5838 16.6767 19.0814 14.4406 19.0811 11.9592C19.0927 8.59566 16.3796 5.85744 13.0161 5.83816C10.5348 5.81509 8.28502 7.29201 7.31952 9.57784C6.35403 11.8637 6.86382 14.5062 8.61033 16.2689C10.3568 18.0315 12.9946 18.5656 15.2892 17.6211ZM16.9281 11.9593C16.9281 14.1507 15.1516 15.9272 12.9601 15.9272H12.9591C11.9048 15.9337 10.8919 15.5177 10.1465 14.7721C9.40115 14.0265 8.98538 13.0135 8.99208 11.9593C8.99208 9.76778 10.7686 7.99123 12.9601 7.99123C15.1516 7.99123 16.9281 9.76778 16.9281 11.9593Z" fill="white"/>
<path fill-rule="evenodd" clip-rule="evenodd" d="M20.7241 5.61089C20.7365 6.40787 20.104 7.06577 19.3071 7.08489C18.5236 7.06428 17.8992 6.42319 17.8992 5.63939C17.8992 4.8556 18.5236 4.2145 19.3071 4.19389C19.6896 4.17056 20.0638 4.31234 20.3347 4.5833C20.6057 4.85426 20.7475 5.2284 20.7241 5.61089Z" fill="white"/>
</svg>
