<svg width="33" height="34" viewBox="0 0 33 34" fill="none" xmlns="http://www.w3.org/2000/svg">
<path d="M33 1.93124C33 2.95928 32.1666 3.79266 31.1386 3.79266H5.51532C5.02507 3.79266 4.5961 3.97651 4.22841 4.3442C3.89136 4.68124 3.72284 5.09489 3.72284 5.58514V27.6464C3.72284 28.1367 3.89136 28.5656 4.22841 28.9333C4.5961 29.2704 5.02507 29.4389 5.51532 29.4389H31.1386C32.1666 29.4389 33 30.2723 33 31.3003C33 32.3284 32.1666 33.1617 31.1386 33.1617H5.51532C3.98329 33.1617 2.68106 32.6255 1.60864 31.5531C0.536212 30.4807 0 29.1785 0 27.6464V5.58514C0 4.05311 0.536212 2.75088 1.60864 1.67846C2.68106 0.606035 3.98329 0.0698242 5.51532 0.0698242H31.1386C32.1666 0.0698242 33 0.90321 33 1.93124Z" fill="white"/>
<path d="M22.7144 22.6978C23.7425 22.6978 24.5738 23.5311 24.5738 24.5592C24.5738 25.5872 23.7404 26.4206 22.7124 26.4206H8.90878C7.88075 26.4206 7.04736 25.5872 7.04736 24.5592C7.04736 23.5311 7.87527 22.6978 8.9033 22.6978C12.1323 22.6978 18.8113 22.6978 22.7144 22.6978Z" fill="white"/>
</svg>
